<svg width="32" height="32" viewBox="0 0 32 32" fill="none" xmlns="http://www.w3.org/2000/svg">
      <g clip-path="url(#clip0_2312_18281)">
      <path class="c2" d="M27.6068 4.23053C24.6509 -0.0270957 18.7661 -1.27455 14.5356 1.41019L7.078 6.18307C5.0441 7.45765 3.63393 9.54579 3.22715 11.9051C2.87461 13.8848 3.17292 15.9187 4.12207 17.6814C3.47122 18.6576 3.03732 19.7424 2.84749 20.8814C2.41359 23.2949 2.98308 25.7899 4.39325 27.7695C7.37631 32.0271 13.2339 33.2746 17.4644 30.5899L24.9221 25.8441C26.956 24.5695 28.3661 22.4814 28.7729 20.1221C29.1255 18.1424 28.8272 16.1085 27.878 14.3458C28.5288 13.3695 28.9627 12.2848 29.1526 11.1458C29.6136 8.70511 29.0441 6.21019 27.6068 4.23053Z" fill="#FF3E00"/>
      <path d="M13.8033 28.1763C11.3898 28.8 8.86773 27.8509 7.45756 25.817C6.58976 24.6238 6.26434 23.1322 6.50841 21.6678C6.56264 21.4238 6.61688 21.2068 6.67112 20.9628L6.80671 20.5289L7.18637 20.8C8.08129 21.4509 9.05756 21.939 10.1152 22.2645L10.3864 22.3458L10.3593 22.617C10.3321 22.9967 10.4406 23.4034 10.6576 23.7289C11.0915 24.3526 11.8508 24.6509 12.583 24.4611C12.7457 24.4068 12.9084 24.3526 13.044 24.2712L20.4745 19.5255C20.8542 19.2814 21.0982 18.9289 21.1796 18.495C21.2609 18.0611 21.1525 17.6 20.9084 17.2475C20.4745 16.6238 19.7152 16.3526 18.983 16.5424C18.8203 16.5967 18.6576 16.6509 18.522 16.7323L15.6745 18.5492C15.2135 18.8475 14.6982 19.0645 14.1559 19.2C11.7423 19.8238 9.22027 18.8746 7.8101 16.8407C6.96942 15.6475 6.61688 14.156 6.88807 12.6916C7.13214 11.2814 7.99993 10.0068 9.22027 9.2475L16.6779 4.50174C17.1389 4.20344 17.6542 3.98649 18.1965 3.82378C20.6101 3.20005 23.1321 4.1492 24.5423 6.1831C25.4101 7.37632 25.7355 8.86784 25.4915 10.3322C25.4372 10.5763 25.383 10.7933 25.3016 11.0373L25.166 11.4712L24.7864 11.2C23.8915 10.5492 22.9152 10.0611 21.8576 9.73564L21.5864 9.65428L21.6135 9.3831C21.6406 9.00344 21.5321 8.59666 21.3152 8.27123C20.8813 7.6475 20.122 7.37632 19.3898 7.56615C19.2271 7.62039 19.0643 7.67462 18.9287 7.75598L11.4982 12.5017C11.1186 12.7458 10.8745 13.0984 10.7932 13.5323C10.7118 13.9661 10.8203 14.4272 11.0643 14.7797C11.4982 15.4034 12.2576 15.6746 12.9898 15.4848C13.1525 15.4306 13.3152 15.3763 13.4508 15.295L16.2982 13.478C16.7593 13.1797 17.2745 12.9628 17.8169 12.8C20.2304 12.1763 22.7525 13.1255 24.1626 15.1594C25.0304 16.3526 25.3559 17.8441 25.1118 19.3085C24.8677 20.7187 23.9999 21.9933 22.7796 22.7526L15.322 27.4984C14.8609 27.7967 14.3457 28.0136 13.8033 28.1763Z" fill="white"/>
      </g>
      <defs>
      <clipPath id="clip0_2312_18281">
      <rect width="26.6034" height="32" fill="white" transform="translate(2.71191)"/>
      </clipPath>
      </defs>
      </svg>