<svg width="32" height="32" viewBox="0 0 32 32" fill="none" xmlns="http://www.w3.org/2000/svg">
      <path class="c2" d="M29.0298 24.9377C28.5415 26.0557 27.9634 27.0848 27.2937 28.031C26.3808 29.3208 25.6333 30.2136 25.0573 30.7094C24.1643 31.5232 23.2075 31.94 22.183 31.9637C21.4475 31.9637 20.5605 31.7563 19.528 31.3355C18.4921 30.9168 17.5401 30.7094 16.6696 30.7094C15.7567 30.7094 14.7776 30.9168 13.7304 31.3355C12.6815 31.7563 11.8366 31.9755 11.1906 31.9973C10.2081 32.0387 9.22881 31.6101 8.25131 30.7094C7.62742 30.1702 6.84706 29.2457 5.91222 27.9361C4.90922 26.5377 4.0846 24.916 3.43859 23.0672C2.74673 21.0702 2.3999 19.1364 2.3999 17.2643C2.3999 15.1197 2.86752 13.2701 3.80415 11.7201C4.54026 10.4751 5.51955 9.49305 6.7452 8.77208C7.97086 8.05112 9.29518 7.68372 10.7214 7.66022C11.5017 7.66022 12.5251 7.89942 13.7968 8.36953C15.0649 8.84122 15.8791 9.08042 16.2361 9.08042C16.503 9.08042 17.4075 8.80072 18.941 8.24311C20.3911 7.72599 21.6149 7.51188 22.6175 7.59622C25.3343 7.8135 27.3754 8.8748 28.7328 10.7868C26.3031 12.2458 25.1011 14.2892 25.125 16.9105C25.147 18.9523 25.8944 20.6514 27.3635 22.0005C28.0292 22.6267 28.7727 23.1106 29.5999 23.4543C29.4205 23.9698 29.2312 24.4637 29.0298 24.9377ZM22.7989 0.640182C22.7989 2.24055 22.2089 3.7348 21.0329 5.11787C19.6137 6.76207 17.8971 7.71216 16.0356 7.56224C16.0119 7.37025 15.9981 7.16818 15.9981 6.95584C15.9981 5.41949 16.673 3.7753 17.8716 2.43094C18.47 1.75027 19.231 1.1843 20.1539 0.732821C21.0747 0.288073 21.9458 0.0421187 22.765 0C22.7889 0.213944 22.7989 0.427901 22.7989 0.640162V0.640182Z" fill="black"/>
      </svg>