<svg width="252" height="41" viewBox="0 0 252 41" fill="none" xmlns="http://www.w3.org/2000/svg"><rect x="0.856445" y="0.925293" width="250" height="38.8291" rx="19.4146" fill="#FEF3DD" stroke="white"/><path d="M231.978 23.3804L231.967 17.7012L45.2448 18.0644L45.2559 23.7436L231.978 23.3804Z" fill="#0092E4"/><path d="M65.862 20.6654C69.6734 19.157 72.3435 15.4065 72.2745 11.0662L51.9734 11.3885C52.0435 15.7328 54.8281 19.3929 58.6902 20.7796C54.8788 22.288 52.2087 26.0385 52.2777 30.3789L72.5788 30.0566C72.5087 25.7122 69.7241 22.0521 65.862 20.6654Z" fill="#00D7AD"/><path d="M153.063 20.6654C156.875 19.157 159.545 15.4065 159.476 11.0662L139.175 11.3885C139.245 15.7328 142.029 19.3929 145.891 20.7796C142.08 22.288 139.41 26.0385 139.479 30.3789L159.78 30.0566C159.71 25.7122 156.925 22.0521 153.063 20.6654Z" fill="#00D7AD"/><path d="M209.437 20.6654C213.249 19.157 215.919 15.4065 215.85 11.0662L195.549 11.3885C195.619 15.7328 198.403 19.3929 202.265 20.7796C198.454 22.288 195.784 26.0385 195.853 30.3789L216.154 30.0566C216.084 25.7122 213.299 22.0521 209.437 20.6654Z" fill="#00D7AD"/><path d="M18.7825 19.9102C18.7908 24.1522 22.2362 27.5842 26.4781 27.576C30.72 27.5677 34.1521 24.1223 34.1438 19.8804C34.1356 15.6385 30.6902 12.2064 26.4482 12.2146C22.2063 12.2229 18.7743 15.6683 18.7825 19.9102Z" fill="#FFBF00" stroke="white" stroke-width="1.08241" stroke-miterlimit="10"/><rect x="84.9609" y="19.9165" width="15.0359" height="15.0359" transform="rotate(-45.1114 84.9609 19.9165)" fill="#FFC830"/><path fill-rule="evenodd" clip-rule="evenodd" d="M95.4532 30.3665L95.4124 9.42282L95.5722 9.26242L106.225 19.8737L95.6136 30.5263L95.4532 30.3665Z" fill="#FF6D00"/><rect x="167.032" y="19.9165" width="15.0359" height="15.0359" transform="rotate(-45.1114 167.032 19.9165)" fill="#FFC830"/><path fill-rule="evenodd" clip-rule="evenodd" d="M177.524 30.3665L177.484 9.42282L177.643 9.26242L188.296 19.8737L177.685 30.5263L177.524 30.3665Z" fill="#FF6D00"/></svg>