<svg width="32" height="32" viewBox="0 0 32 32" fill="none" xmlns="http://www.w3.org/2000/svg">
      <path class="c2" d="M32 15.8611C32 13.7399 29.3453 11.7296 25.2752 10.483C26.2144 6.33193 25.797 3.02935 23.9576 1.972C23.5336 1.72399 23.0379 1.6065 22.4965 1.6065V3.06199C22.7966 3.06199 23.0379 3.12073 23.2401 3.23168C24.1272 3.74078 24.512 5.67925 24.212 8.1725C24.1402 8.78602 24.0228 9.43218 23.8793 10.0914C22.6009 9.7781 21.2051 9.5366 19.7375 9.37996C18.8569 8.1725 17.9437 7.07599 17.0241 6.11654C19.1504 4.13891 21.1464 3.05546 22.5031 3.05546V1.59998C20.7093 1.59998 18.3612 2.87924 15.987 5.09836C13.6127 2.89229 11.2646 1.62608 9.47085 1.62608V3.08157C10.821 3.08157 12.8235 4.15849 14.9499 6.12307C14.0367 7.08252 13.1235 8.1725 12.256 9.37996C10.7819 9.5366 9.38606 9.7781 8.10762 10.0979C7.9576 9.44523 7.84672 8.81213 7.76845 8.20513C7.46188 5.71188 7.8402 3.77341 8.72075 3.25779C8.91643 3.14031 9.17081 3.08809 9.47085 3.08809V1.63261C8.92295 1.63261 8.42723 1.75009 7.99674 1.99811C6.16388 3.05546 5.75296 6.35151 6.69874 10.4895C2.64166 11.7427 0 13.7464 0 15.8611C0 17.9823 2.65471 19.9926 6.72483 21.2392C5.78557 25.3903 6.20302 28.6929 8.0424 29.7502C8.46637 29.9982 8.96209 30.1157 9.50999 30.1157C11.3037 30.1157 13.6519 28.8364 16.0261 26.6173C18.4003 28.8234 20.7485 30.0896 22.5422 30.0896C23.0901 30.0896 23.5858 29.9721 24.0163 29.7241C25.8492 28.6668 26.2601 25.3707 25.3143 21.2327C29.3583 19.9861 32 17.9758 32 15.8611ZM23.5075 11.5077C23.2662 12.3497 22.9662 13.2177 22.627 14.0858C22.3596 13.5637 22.0791 13.0415 21.7725 12.5194C21.4725 11.9972 21.1529 11.4881 20.8333 10.9921C21.7595 11.1292 22.6531 11.2989 23.5075 11.5077ZM20.5202 18.4588C20.0114 19.3399 19.4896 20.1753 18.9482 20.952C17.9764 21.0369 16.9914 21.0826 16 21.0826C15.0151 21.0826 14.0302 21.0369 13.0648 20.9586C12.5234 20.1819 11.9951 19.353 11.4863 18.4784C10.9906 17.6234 10.5406 16.7553 10.1296 15.8807C10.534 15.0061 10.9906 14.1315 11.4798 13.2765C11.9886 12.3954 12.5104 11.5599 13.0518 10.7832C14.0236 10.6984 15.0086 10.6527 16 10.6527C16.9849 10.6527 17.9698 10.6984 18.9352 10.7767C19.4766 11.5534 20.0049 12.3823 20.5137 13.2569C21.0094 14.1119 21.4594 14.98 21.8704 15.8546C21.4594 16.7292 21.0094 17.6038 20.5202 18.4588ZM22.627 17.6103C22.9792 18.4849 23.2793 19.3595 23.5271 20.208C22.6726 20.4168 21.7725 20.5931 20.8398 20.7301C21.1594 20.2276 21.479 19.7119 21.779 19.1833C22.0791 18.6611 22.3596 18.1324 22.627 17.6103ZM16.013 24.5744C15.4064 23.9479 14.7998 23.2495 14.1998 22.4858C14.7868 22.5119 15.3869 22.5315 15.9935 22.5315C16.6066 22.5315 17.2132 22.5185 17.8068 22.4858C17.2197 23.2495 16.6131 23.9479 16.013 24.5744ZM11.1602 20.7301C10.234 20.5931 9.3404 20.4234 8.48594 20.2145C8.72727 19.3725 9.02731 18.5045 9.36649 17.6364C9.63392 18.1586 9.91439 18.6807 10.221 19.2028C10.5275 19.725 10.8406 20.2341 11.1602 20.7301ZM15.9804 7.14778C16.587 7.77436 17.1936 8.47273 17.7937 9.23637C17.2067 9.21026 16.6066 9.19068 16 9.19068C15.3869 9.19068 14.7803 9.20374 14.1867 9.23637C14.7737 8.47273 15.3804 7.77436 15.9804 7.14778ZM11.1537 10.9921C10.8341 11.4947 10.5145 12.0103 10.2144 12.5389C9.91439 13.0611 9.63392 13.5832 9.36649 14.1054C9.01427 13.2308 8.71423 12.3562 8.46637 11.5077C9.32083 11.3054 10.221 11.1292 11.1537 10.9921ZM5.25071 19.1637C2.9417 18.1781 1.44802 16.8858 1.44802 15.8611C1.44802 14.8364 2.9417 13.5376 5.25071 12.5585C5.81166 12.317 6.42479 12.1017 7.05748 11.8993C7.42927 13.1786 7.91847 14.5101 8.52507 15.8742C7.92499 17.2317 7.44232 18.5567 7.07705 19.8294C6.43131 19.6271 5.81818 19.4052 5.25071 19.1637ZM8.75989 28.4905C7.87281 27.9814 7.48798 26.043 7.78802 23.5497C7.85976 22.9362 7.97717 22.29 8.12067 21.6308C9.39911 21.9441 10.7949 22.1856 12.2625 22.3423C13.1431 23.5497 14.0563 24.6462 14.9759 25.6057C12.8496 27.5833 10.8536 28.6668 9.49694 28.6668C9.20342 28.6602 8.95557 28.6015 8.75989 28.4905ZM24.2316 23.5171C24.5381 26.0103 24.1598 27.9488 23.2792 28.4644C23.0836 28.5819 22.8292 28.6341 22.5291 28.6341C21.179 28.6341 19.1765 27.5572 17.0501 25.5926C17.9633 24.6332 18.8765 23.5432 19.744 22.3357C21.2181 22.1791 22.6139 21.9376 23.8924 21.6178C24.0424 22.277 24.1598 22.9101 24.2316 23.5171ZM26.7428 19.1637C26.1818 19.4052 25.5687 19.6206 24.936 19.8229C24.5642 18.5436 24.075 17.2122 23.4684 15.8481C24.0685 14.4905 24.5512 13.1655 24.9164 11.8928C25.5622 12.0951 26.1753 12.317 26.7493 12.5585C29.0583 13.5441 30.552 14.8364 30.552 15.8611C30.5455 16.8858 29.0518 18.1847 26.7428 19.1637Z" fill="#61DAFB"/>
      <path class="c2" d="M15.9935 18.8439C17.6398 18.8439 18.9744 17.5085 18.9744 15.8611C18.9744 14.2138 17.6398 12.8784 15.9935 12.8784C14.3473 12.8784 13.0127 14.2138 13.0127 15.8611C13.0127 17.5085 14.3473 18.8439 15.9935 18.8439Z" fill="#61DAFB"/>
      </svg>