<svg width="32" height="32" viewBox="0 0 44 44" fill="none" xmlns="http://www.w3.org/2000/svg">
      <path class="c2" d="M4.78967 32.9447C3.41427 32.9447 2 34.0496 2 35.9834C2 37.7513 3.24348 39.0001 4.78967 39.0001C6.06598 39.0001 6.63482 38.1413 6.63482 38.1413V38.5156C6.63482 38.6926 6.80169 38.89 7.00823 38.89H7.93081V33.0768H6.63482V33.8145C6.63482 33.8145 6.06122 32.9447 4.78967 32.9447ZM5.02053 34.1334C6.15278 34.1334 6.74671 35.1316 6.74671 35.983C6.74671 36.9313 6.04153 37.8319 5.02294 37.8319C4.17145 37.8319 3.31851 37.1406 3.31851 35.9705C3.31851 34.9142 4.05252 34.1334 5.02053 34.1334Z" fill="black"/>
      <path class="c2" d="M9.73216 38.8898C9.53305 38.8898 9.35874 38.7466 9.35874 38.5155V33.0767H10.6547V33.796C10.9484 33.3535 11.5221 32.9428 12.4028 32.9428C13.8422 32.9428 14.6086 34.093 14.6086 35.1685V38.8898H13.708C13.4718 38.8898 13.3126 38.6916 13.3126 38.4934V35.4548C13.3126 34.8586 12.9482 34.1346 12.1055 34.1346C11.1962 34.1346 10.6547 34.996 10.6547 35.8071V38.8898H9.73216Z" fill="black"/>
      <path class="c2" d="M18.3867 32.9448C17.0113 32.9448 15.597 34.0496 15.597 35.9834C15.597 37.7514 16.8405 39.0001 18.3867 39.0001C19.663 39.0001 20.2318 38.1413 20.2318 38.1413V38.5157C20.2318 38.6926 20.3987 38.89 20.6053 38.89H21.5278V30.1703H20.2318V33.8145C20.2318 33.8145 19.6582 32.9448 18.3867 32.9448ZM18.6176 34.1334C19.7498 34.1334 20.3437 35.1316 20.3437 35.983C20.3437 36.9313 19.6386 37.8319 18.62 37.8319C17.7685 37.8319 16.9155 37.1407 16.9155 35.9705C16.9155 34.9142 17.6495 34.1334 18.6176 34.1334Z" fill="black"/>
      <path class="c2" d="M23.3289 38.8899C23.1298 38.8899 22.9555 38.7468 22.9555 38.5156V33.0768H24.2515V34.0457C24.4746 33.5029 24.9559 33.0107 25.8111 33.0107C26.0495 33.0107 26.2724 33.0548 26.2724 33.0548V34.398C26.2724 34.398 25.9941 34.2879 25.6573 34.2879C24.748 34.2879 24.2515 35.1493 24.2515 35.9604V38.8899H23.3289Z" fill="black"/>
      <path class="c2" d="M34.1362 38.8899C33.9371 38.8899 33.7627 38.7467 33.7627 38.5156V33.0768H35.0588V38.8899H34.1362Z" fill="black"/>
      <path class="c2" d="M38.8588 32.9448C37.4834 32.9448 36.0691 34.0496 36.0691 35.9834C36.0691 37.7514 37.3126 39.0001 38.8588 39.0001C40.1351 39.0001 40.704 38.1413 40.704 38.1413V38.5157C40.704 38.6926 40.8708 38.89 41.0774 38.89H42V30.1703H40.704V33.8145C40.704 33.8145 40.1304 32.9448 38.8588 32.9448ZM39.0897 34.1334C40.2219 34.1334 40.8159 35.1316 40.8159 35.983C40.8159 36.9313 40.1107 37.8319 39.0921 37.8319C38.2406 37.8319 37.3877 37.1407 37.3877 35.9705C37.3877 34.9142 38.1217 34.1334 39.0897 34.1334Z" fill="black"/>
      <path class="c2" d="M34.4006 31.823C34.874 31.823 35.2578 31.4383 35.2578 30.9638C35.2578 30.4892 34.874 30.1045 34.4006 30.1045C33.9272 30.1045 33.5435 30.4892 33.5435 30.9638C33.5435 31.4383 33.9272 31.823 34.4006 31.823Z" fill="black"/>
      <path class="c2" d="M29.6903 32.9428C28.2499 32.9428 26.6674 34.0206 26.6674 35.9731C26.6674 37.7523 28.0153 39.0003 29.6872 39.0003C31.7476 39.0003 32.7537 37.3399 32.7537 35.9843C32.7537 34.3209 31.4582 32.9428 29.6903 32.9428ZM29.695 34.156C30.6911 34.156 31.4341 34.9608 31.4341 35.9767C31.4341 37.0103 30.6454 37.8079 29.698 37.8079C28.8185 37.8079 27.9636 37.0904 27.9636 35.9941C27.9636 34.8795 28.7767 34.156 29.695 34.156Z" fill="black"/>
      <path class="c2" d="M31.7625 10.7702L35.0784 5.01218C35.2655 4.68938 35.1524 4.27934 34.8347 4.09177C34.517 3.9042 34.1036 4.01325 33.9209 4.33605L30.5615 10.1682C27.9984 8.99481 25.1133 8.34049 22.0107 8.34049C18.908 8.34049 16.023 8.99481 13.4599 10.1682L10.1005 4.33605C9.9134 4.01325 9.50435 3.9042 9.18234 4.09177C8.86032 4.27934 8.75153 4.68938 8.93865 5.01218L12.2545 10.7702C6.5366 13.876 2.66372 19.6777 2.02405 26.4695H41.9973C41.3576 19.6777 37.4848 13.876 31.7625 10.7702ZM12.8333 20.8424C11.9064 20.8424 11.1579 20.0877 11.1579 19.163C11.1579 18.2338 11.9108 17.4835 12.8333 17.4835C13.7602 17.4835 14.5086 18.2382 14.5086 19.163C14.513 20.0877 13.7602 20.8424 12.8333 20.8424ZM31.1837 20.8424C30.2569 20.8424 29.5084 20.0877 29.5084 19.163C29.5084 18.2338 30.2612 17.4835 31.1837 17.4835C32.1106 17.4835 32.8591 18.2382 32.8591 19.163C32.8634 20.0877 32.1106 20.8424 31.1837 20.8424Z" fill="#32DE84"/>
      </svg>