<svg width="32" height="32" viewBox="0 0 44 44" fill="none" xmlns="http://www.w3.org/2000/svg">
      <g clip-path="url(#clip0_2544_18877)">
      <path d="M42 2H2V42H42V2Z" class="c1" fill="#F7DF1E"/>
      <path class="c2" d="M28.869 33.2498C29.6747 34.5653 30.723 35.5323 32.577 35.5323C34.1344 35.5323 35.1293 34.7539 35.1293 33.6783C35.1293 32.3895 34.1071 31.933 32.3928 31.1831L31.4532 30.7799C28.7408 29.6244 26.9389 28.1768 26.9389 25.1164C26.9389 22.2974 29.0868 20.1514 32.4436 20.1514C34.8335 20.1514 36.5516 20.9831 37.7897 23.1609L34.8627 25.0403C34.2182 23.8847 33.523 23.4295 32.4436 23.4295C31.3427 23.4295 30.6449 24.1279 30.6449 25.0403C30.6449 26.1679 31.3433 26.6244 32.956 27.3228L33.8957 27.7253C37.0893 29.0949 38.8925 30.491 38.8925 33.6301C38.8925 37.0142 36.2341 38.8682 32.6639 38.8682C29.1732 38.8682 26.9179 37.2047 25.8144 35.0244L28.869 33.2498ZM15.5909 33.5755C16.1814 34.6231 16.7186 35.5088 18.01 35.5088C19.2449 35.5088 20.0239 35.0257 20.0239 33.1469V20.366H23.7827V33.1977C23.7827 37.0898 21.5008 38.8612 18.17 38.8612C15.1605 38.8612 13.4176 37.3037 12.5312 35.4279L15.5909 33.5755Z" fill="black"/>
      </g>
      <defs>
      <clipPath id="clip0_2544_18877">
      <rect x="2" y="2" width="40" height="40" rx="4" fill="white"/>
      </clipPath>
      </defs>
      </svg>