<svg width="30" height="33" viewBox="0 0 30 33" fill="none" xmlns="http://www.w3.org/2000/svg" class="mr-10 mt-[13px] hidden min-w-[30px] lg:flex"><path d="M12.0451 1.16317L2.47855 6.69034C1.72506 7.12567 1.09974 7.75061 0.665328 8.5025C0.23018 9.25564 0.000794475 10.1092 0 10.9781V22.0324C0.00266761 22.8995 0.232913 23.7509 0.667835 24.5022C1.10216 25.2517 1.72625 25.8747 2.4779 26.309L12.0445 31.8359C12.7971 32.2707 13.6517 32.4998 14.5218 32.5C15.3919 32.4998 16.2466 32.2707 16.9993 31.8359L26.5658 26.309C27.3175 25.8747 27.9415 25.2517 28.3757 24.5022C28.811 23.7514 29.0418 22.9004 29.0453 22.0335V10.9792C29.0443 10.1103 28.8148 9.25678 28.3797 8.50361C27.9454 7.75169 27.3202 7.12673 26.5667 6.69145L17.0001 1.16429C16.2474 0.729534 15.3928 0.500382 14.5226 0.5C13.6525 0.500311 12.7978 0.728498 12.0451 1.16317Z" fill="white"/></svg>