<svg width="24" height="25" viewBox="0 0 24 25" fill="none" xmlns="http://www.w3.org/2000/svg"><path d="M12.0022 7.35554C9.16453 7.35554 6.87563 9.64444 6.87563 12.4821C6.87563 15.3198 9.16453 17.6087 12.0022 17.6087C14.8399 17.6087 17.1288 15.3198 17.1288 12.4821C17.1288 9.64444 14.8399 7.35554 12.0022 7.35554ZM12.0022 15.8151C10.1684 15.8151 8.66927 14.3204 8.66927 12.4821C8.66927 10.6439 10.164 9.14918 12.0022 9.14918C13.8405 9.14918 15.3352 10.6439 15.3352 12.4821C15.3352 14.3204 13.836 15.8151 12.0022 15.8151ZM18.5343 7.14584C18.5343 7.81064 17.9989 8.3416 17.3385 8.3416C16.6737 8.3416 16.1428 7.80618 16.1428 7.14584C16.1428 6.48549 16.6782 5.95007 17.3385 5.95007C17.9989 5.95007 18.5343 6.48549 18.5343 7.14584ZM21.9297 8.35945C21.8539 6.75766 21.488 5.33881 20.3146 4.16982C19.1456 3.00083 17.7267 2.63496 16.1249 2.55465C14.4741 2.46095 9.52593 2.46095 7.87507 2.55465C6.27775 2.6305 4.8589 2.99637 3.68544 4.16536C2.51199 5.33435 2.15059 6.7532 2.07027 8.35498C1.97658 10.0058 1.97658 14.954 2.07027 16.6048C2.14612 18.2066 2.51199 19.6255 3.68544 20.7945C4.8589 21.9635 6.27328 22.3293 7.87507 22.4096C9.52593 22.5033 14.4741 22.5033 16.1249 22.4096C17.7267 22.3338 19.1456 21.9679 20.3146 20.7945C21.4835 19.6255 21.8494 18.2066 21.9297 16.6048C22.0234 14.954 22.0234 10.0103 21.9297 8.35945ZM19.797 18.3762C19.449 19.2507 18.7752 19.9244 17.8963 20.2769C16.58 20.7989 13.4568 20.6785 12.0022 20.6785C10.5477 20.6785 7.41997 20.7945 6.1082 20.2769C5.23369 19.9289 4.55996 19.2552 4.20747 18.3762C3.68544 17.0599 3.80591 13.9367 3.80591 12.4821C3.80591 11.0276 3.68991 7.89988 4.20747 6.58811C4.55549 5.7136 5.22922 5.03987 6.1082 4.68739C7.42443 4.16536 10.5477 4.28583 12.0022 4.28583C13.4568 4.28583 16.5845 4.16982 17.8963 4.68739C18.7708 5.03541 19.4445 5.70914 19.797 6.58811C20.319 7.90434 20.1985 11.0276 20.1985 12.4821C20.1985 13.9367 20.319 17.0644 19.797 18.3762Z" fill="white"/></svg>