<svg width="160" height="22" viewBox="0 0 160 22" fill="none" xmlns="http://www.w3.org/2000/svg" class="ml-3 h-5 w-auto"><path fill-rule="evenodd" clip-rule="evenodd" d="M152.06 0.759766V1.42526H153.138V4.3595H153.931V1.42526H155.01V0.759766H152.06ZM157.379 3.23564L156.538 0.759766H155.423V4.3595H156.164V1.83364H156.174L157.057 4.3595H157.667L158.55 1.80885H158.56V4.3595H159.302V0.759766H158.187L157.389 3.23564H157.379Z" fill="white"/><g clip-path="url(#clip0_4572_192)"><path d="M13.9878 4.70324H4.51811V9.10444H13.1522V12.4119H4.51811V20.781H0.416016V1.24316H13.9878V4.70324Z" fill="white"/><path d="M25.1332 21.189C22.179 21.189 19.8157 20.2561 18.0433 18.3904C16.2539 16.5418 15.3594 14.0825 15.3594 11.0124C15.3594 7.92566 16.2539 5.45793 18.0433 3.60918C19.8156 1.74343 22.1789 0.810547 25.1332 0.810547C28.0536 0.810547 30.4169 1.74343 32.223 3.60918C33.9954 5.45793 34.8816 7.92566 34.8816 11.0124C34.8816 14.0991 33.9954 16.5672 32.223 18.4167C30.4506 20.2649 28.0873 21.189 25.1332 21.189ZM25.1332 17.7797C26.8551 17.7797 28.2055 17.1946 29.1843 16.0245C30.1635 14.8713 30.6531 13.2005 30.6531 11.0124C30.6531 8.82424 30.1635 7.15362 29.1843 6.00053C28.2052 4.83025 26.8548 4.2451 25.1332 4.2451C23.4115 4.2451 22.0612 4.83025 21.082 6.00053C20.0861 7.18765 19.5881 8.85828 19.5881 11.0124C19.5881 13.1665 20.0861 14.8372 21.082 16.0245C22.061 17.1948 23.4114 17.7799 25.1332 17.7797Z" fill="white"/><path d="M53.5464 20.781H49.5711L48.9131 16.3298C48.7275 15.1425 48.4066 14.3242 47.9504 13.8748C47.4943 13.4254 46.7432 13.2006 45.697 13.2004H41.4936V20.781H37.3916V1.24316H47.596C49.419 1.24316 50.8328 1.68413 51.8372 2.56605C52.8417 3.44797 53.3438 4.67763 53.3437 6.25503C53.3437 8.76539 51.9427 10.4785 49.1406 11.3942C51.048 11.8013 52.1789 13.031 52.5333 15.0832L53.5464 20.781ZM45.2666 9.94293C46.4989 9.94293 47.4444 9.68851 48.1027 9.17967C48.761 8.67083 49.0901 7.93308 49.0901 6.96644C49.0901 5.32116 48.0267 4.49853 45.8999 4.49853H41.4938V9.94401L45.2666 9.94293Z" fill="white"/><path d="M72.5157 1.24316H78.7191V20.781H74.8449V6.25503L74.8957 4.1181L74.2628 6.25503L69.2746 20.781H65.3753L60.4126 6.27948L59.7795 4.0915L59.8045 6.27948V20.781H55.9307V1.24316H62.4126L66.5147 14.3455L67.3248 17.449L68.1859 14.3455L72.5157 1.24316Z" fill="white"/><path d="M86.0665 17.2712H95.182V20.781H81.7871V1.24316H86.0653L86.0665 17.2712Z" fill="white"/><path d="M101.034 17.322H111.288V20.781H96.9316V1.24316H111.237V4.70324H101.033V9.07919H110.351V12.4374H101.033L101.034 17.322Z" fill="white"/><path d="M113.316 15.542L117.418 15.0584C117.823 17.0768 119.309 18.0859 121.875 18.0859C123.192 18.0859 124.204 17.8531 124.913 17.3874C125.248 17.1827 125.523 16.8923 125.71 16.5459C125.897 16.1995 125.989 15.8095 125.977 15.4157C125.994 15.1006 125.933 14.7862 125.801 14.5001C125.668 14.214 125.468 13.9649 125.217 13.7747C124.711 13.3931 123.858 13.0751 122.66 12.8207L120.027 12.3119C117.984 11.9048 116.478 11.2433 115.508 10.3276C114.538 9.41178 114.052 8.1651 114.052 6.58753C114.052 4.73896 114.731 3.30611 116.09 2.28896C117.449 1.27181 119.386 0.763054 121.901 0.762695C126.476 0.762695 129.143 2.48418 129.903 5.92716L125.927 6.38388C125.848 5.9893 125.69 5.61476 125.464 5.28249C125.238 4.95021 124.948 4.66696 124.61 4.44953C123.952 4.04241 123.024 3.83886 121.825 3.83886C119.445 3.83886 118.255 4.63589 118.255 6.22994C118.235 6.51755 118.283 6.80591 118.395 7.07127C118.507 7.33663 118.681 7.57139 118.901 7.7562C119.331 8.09561 120.12 8.38397 121.268 8.62129L123.598 9.10488C125.927 9.59688 127.607 10.2923 128.636 11.191C129.666 12.0898 130.181 13.311 130.181 14.8548C130.181 16.8729 129.434 18.4417 127.94 19.5612C126.446 20.6806 124.366 21.2403 121.699 21.2403C116.853 21.2399 114.059 19.3405 113.316 15.542Z" fill="white"/><path d="M132.022 15.542L136.125 15.0584C136.53 17.0768 138.015 18.0859 140.581 18.0859C141.898 18.0859 142.91 17.8531 143.619 17.3874C143.955 17.1828 144.23 16.8924 144.416 16.546C144.603 16.1996 144.695 15.8095 144.683 15.4157C144.7 15.1006 144.639 14.7862 144.507 14.5001C144.374 14.2139 144.174 13.9649 143.923 13.7747C143.417 13.3931 142.565 13.0751 141.366 12.8207L138.733 12.3119C136.69 11.9048 135.184 11.2433 134.214 10.3276C133.244 9.41178 132.758 8.1651 132.758 6.58753C132.758 4.73896 133.437 3.30611 134.796 2.28896C136.155 1.27181 138.092 0.763054 140.607 0.762695C145.182 0.762695 147.849 2.48418 148.609 5.92716L144.633 6.38388C144.554 5.98934 144.396 5.61485 144.17 5.28259C143.944 4.95033 143.654 4.66705 143.316 4.44953C142.658 4.04241 141.73 3.83886 140.531 3.83886C138.151 3.83886 136.961 4.63589 136.961 6.22994C136.941 6.51754 136.988 6.80589 137.101 7.07123C137.213 7.33658 137.386 7.57134 137.607 7.7562C138.037 8.09561 138.826 8.38397 139.974 8.62129L142.304 9.10488C144.633 9.59688 146.313 10.2923 147.342 11.191C148.372 12.0898 148.887 13.311 148.887 14.8548C148.887 16.8729 148.14 18.4417 146.646 19.5612C145.152 20.6806 143.072 21.2403 140.405 21.2403C135.56 21.2399 132.765 19.3405 132.022 15.542Z" fill="white"/></g><defs><clipPath id="clip0_4572_192"><rect width="148.48" height="20.48" fill="white" transform="translate(0.411133 0.759766)"/></clipPath></defs></svg>