<svg width="915" height="127" viewBox="0 0 915 127" fill="none" xmlns="http://www.w3.org/2000/svg" delay="0" class="lg:max-w-[720px] xl:max-w-[915px]"><path d="M83.8796 24.7717H25.5471V51.8827H78.7324V72.2564H25.5471V123.809H0.278687V3.45801H83.8796V24.7717Z" fill="white" transform-origin="42.07914400100708px 63.63350510597229px" style="transform: translateY(170px); transform-origin: 42.0791px 63.6335px;"/><path d="M152.531 126.323C134.334 126.323 119.776 120.577 108.858 109.084C97.8357 97.6968 92.3252 82.5476 92.3252 63.6363C92.3252 44.6224 97.8357 29.4213 108.858 18.0333C119.775 6.54039 134.333 0.793945 152.531 0.793945C170.52 0.793945 185.078 6.54039 196.203 18.0333C207.121 29.4213 212.58 44.6224 212.58 63.6363C212.58 82.6503 207.121 97.8535 196.203 109.246C185.285 120.631 170.728 126.323 152.531 126.323ZM152.531 105.322C163.138 105.322 171.456 101.718 177.485 94.5105C183.517 87.4065 186.533 77.1151 186.533 63.6363C186.533 50.1575 183.517 39.8667 177.485 32.7637C171.454 25.5549 163.136 21.9505 152.531 21.9505C141.926 21.9505 133.608 25.5549 127.576 32.7637C121.441 40.0763 118.374 50.3671 118.374 63.6363C118.374 76.9055 121.441 87.1969 127.576 94.5105C133.606 101.719 141.925 105.323 152.531 105.322Z" fill="white" transform-origin="152.4526023864746px 63.55847132205963px" style="transform: translateY(170px); transform-origin: 152.453px 63.5585px;"/><path d="M327.555 123.809H303.068L299.014 96.3902C297.871 89.0765 295.895 84.0356 293.085 81.2675C290.275 78.4994 285.648 77.1147 279.203 77.1136H253.311V123.809H228.043V3.45801H290.901C302.131 3.45801 310.839 6.17429 317.027 11.6068C323.214 17.0394 326.307 24.614 326.306 34.3306C326.306 49.7942 317.676 60.3465 300.416 65.9876C312.165 68.4954 319.131 76.0699 321.314 88.7113L327.555 123.809ZM276.553 57.0477C284.144 57.0477 289.967 55.4805 294.022 52.3461C298.078 49.2116 300.105 44.6672 300.105 38.7128C300.105 28.5781 293.554 23.5107 280.453 23.5107H253.313V57.0543L276.553 57.0477Z" fill="white" transform-origin="277.7989959716797px 63.63350510597229px" style="transform: translateY(170px); transform-origin: 277.799px 63.6335px;"/><path d="M444.403 3.45801H482.615V123.809H458.75V34.3306L459.063 21.1673L455.165 34.3306L424.438 123.809H400.419L369.849 34.4812L365.949 21.0035L366.103 34.4812V123.809H342.241V3.45801H382.169L407.437 84.1669L412.428 103.285L417.732 84.1669L444.403 3.45801Z" fill="white" transform-origin="412.42799377441406px 63.63350510597229px" style="transform: translateY(170px); transform-origin: 412.428px 63.6335px;"/><path d="M527.874 102.189H584.025V123.809H501.513V3.45801H527.867L527.874 102.189Z" fill="white" transform-origin="542.7690124511719px 63.63350510597229px" style="transform: translateY(170px); transform-origin: 542.769px 63.6335px;"/><path d="M620.074 102.502H683.243V123.809H594.806V3.45801H682.925V24.7717H620.067V51.7271H677.467V72.4136H620.067L620.074 102.502Z" fill="white" transform-origin="639.0245056152344px 63.63350510597229px" style="transform: translateY(170px); transform-origin: 639.025px 63.6335px;"/><path d="M695.733 91.5379L721.001 88.5591C723.496 100.992 732.647 107.208 748.453 107.208C756.564 107.208 762.802 105.774 767.169 102.906C769.233 101.645 770.927 99.856 772.078 97.7222C773.229 95.5885 773.796 93.186 773.721 90.7601C773.824 88.8192 773.451 86.8825 772.635 85.1201C771.819 83.3577 770.585 81.8234 769.042 80.6519C765.921 78.3008 760.67 76.3419 753.288 74.7752L737.067 71.6408C724.484 69.1331 715.206 65.0586 709.231 59.4176C703.257 53.7765 700.267 46.0971 700.262 36.3794C700.262 24.9924 704.448 16.1662 712.818 9.90064C721.189 3.6351 733.121 0.50123 748.614 0.499023C776.795 0.499023 793.224 11.1032 797.902 32.3116L773.415 35.125C772.925 32.6944 771.955 30.3873 770.562 28.3405C769.168 26.2937 767.38 24.5489 765.303 23.2095C761.248 20.7018 755.529 19.4479 748.147 19.4479C733.487 19.4479 726.156 24.3575 726.155 34.1767C726.029 35.9483 726.325 37.7246 727.016 39.3592C727.708 40.9938 728.776 42.4399 730.133 43.5783C732.782 45.669 737.643 47.4453 744.716 48.9071L759.065 51.886C773.415 54.9167 783.76 59.2002 790.103 64.7365C796.445 70.2727 799.617 77.7955 799.617 87.3046C799.617 99.7364 795.015 109.4 785.814 116.296C776.612 123.191 763.797 126.639 747.368 126.639C717.52 126.637 700.308 114.936 695.733 91.5379Z" fill="white" transform-origin="747.6749877929688px 63.56901127099991px" style="transform: translateY(170px); transform-origin: 747.675px 63.569px;"/><path d="M810.957 91.5379L836.225 88.5591C838.722 100.992 847.873 107.208 863.677 107.208C871.787 107.208 878.025 105.774 882.392 102.906C884.457 101.645 886.151 99.8563 887.302 97.7225C888.453 95.5886 889.02 93.1861 888.945 90.7601C889.048 88.8191 888.675 86.8823 887.859 85.1198C887.043 83.3574 885.809 81.8231 884.266 80.6519C881.146 78.3008 875.895 76.3419 868.513 74.7752L852.291 71.6408C839.708 69.1331 830.429 65.0586 824.455 59.4176C818.48 53.7765 815.49 46.0971 815.484 36.3794C815.484 24.9924 819.67 16.1662 828.042 9.90064C836.413 3.6351 848.345 0.50123 863.838 0.499023C892.016 0.499023 908.446 11.1032 913.126 32.3116L888.638 35.125C888.148 32.6946 887.177 30.3878 885.784 28.3411C884.391 26.2944 882.603 24.5494 880.527 23.2095C876.471 20.7018 870.753 19.4479 863.371 19.4479C848.708 19.4479 841.377 24.3575 841.377 34.1767C841.252 35.9483 841.547 37.7245 842.238 39.359C842.93 40.9935 843.998 42.4396 845.355 43.5783C848.007 45.669 852.868 47.4453 859.938 48.9071L874.289 51.886C888.638 54.9167 898.983 59.2002 905.325 64.7365C911.666 70.2727 914.839 77.7955 914.842 87.3046C914.842 99.7364 910.24 109.4 901.037 116.296C891.834 123.191 879.019 126.639 862.59 126.639C832.744 126.637 815.533 114.936 810.957 91.5379Z" fill="white" transform-origin="862.8994750976562px 63.56901127099991px" style="transform: translateY(170px); transform-origin: 862.899px 63.569px;"/></svg>