<svg width="24" height="25" viewBox="0 0 24 25" fill="none" xmlns="http://www.w3.org/2000/svg"><path fill-rule="evenodd" clip-rule="evenodd" d="M3 5.46573C3 4.34167 3.86245 3.48438 5.18229 3.48438C6.50213 3.48438 7.31563 4.34 7.34264 5.46573C7.34264 6.56797 6.50381 7.44876 5.15866 7.44876H5.13334C3.83713 7.44876 3 6.56629 3 5.46573ZM16.5574 8.74378C14.5085 8.74378 13.592 9.85777 13.0789 10.6379V9.01389H9.2207C9.27134 10.091 9.2207 20.4843 9.2207 20.4843H13.0789V14.0788C13.0789 13.7366 13.1043 13.3943 13.2055 13.1494C13.484 12.4649 14.1186 11.7552 15.1853 11.7552C16.5828 11.7552 17.1414 12.8071 17.1414 14.3489V20.4843H20.9997V13.9077C20.9997 10.3829 19.0959 8.74378 16.5574 8.74378ZM7.08578 9.01462H3.22754V20.485H7.08578V9.01462Z" fill="white"/></svg>