<svg width="24" height="24" viewBox="0 0 24 25" fill="none" xmlns="http://www.w3.org/2000/svg"><path d="M19.6246 5.13619C18.2223 4.49277 16.7186 4.01873 15.1464 3.74723C15.1178 3.74199 15.0892 3.75509 15.0744 3.78128C14.881 4.12524 14.6668 4.57396 14.5168 4.92665C12.8258 4.67349 11.1434 4.67349 9.48709 4.92665C9.33705 4.56612 9.11506 4.12524 8.9208 3.78128C8.90605 3.75596 8.87745 3.74287 8.84882 3.74723C7.27747 4.01787 5.77376 4.49191 4.37064 5.13619C4.35849 5.14142 4.34808 5.15016 4.34117 5.1615C1.48896 9.42265 0.707619 13.5791 1.09092 17.6839C1.09265 17.704 1.10393 17.7232 1.11954 17.7354C3.00134 19.1174 4.8242 19.9564 6.6132 20.5125C6.64183 20.5212 6.67217 20.5107 6.69039 20.4871C7.11358 19.9092 7.49082 19.2999 7.81426 18.6591C7.83335 18.6215 7.81513 18.577 7.77611 18.5622C7.17775 18.3352 6.608 18.0584 6.05993 17.7442C6.01658 17.7189 6.01311 17.6569 6.05299 17.6272C6.16832 17.5407 6.28369 17.4508 6.39381 17.36C6.41374 17.3435 6.4415 17.34 6.46493 17.3504C10.0655 18.9943 13.9635 18.9943 17.5216 17.3504C17.545 17.3391 17.5728 17.3426 17.5936 17.3592C17.7038 17.45 17.8191 17.5407 17.9353 17.6272C17.9752 17.6569 17.9726 17.7189 17.9292 17.7442C17.3812 18.0646 16.8114 18.3352 16.2122 18.5613C16.1732 18.5761 16.1558 18.6215 16.1749 18.6591C16.5053 19.299 16.8825 19.9083 17.2979 20.4863C17.3152 20.5107 17.3464 20.5212 17.3751 20.5125C19.1728 19.9564 20.9956 19.1174 22.8774 17.7354C22.8939 17.7232 22.9043 17.7049 22.906 17.6848C23.3648 12.9391 22.1377 8.81679 19.6532 5.16237C19.6471 5.15016 19.6367 5.14142 19.6246 5.13619ZM8.35194 15.1845C7.26793 15.1845 6.37473 14.1893 6.37473 12.9671C6.37473 11.7448 7.25061 10.7496 8.35194 10.7496C9.46193 10.7496 10.3465 11.7536 10.3291 12.9671C10.3291 14.1893 9.45325 15.1845 8.35194 15.1845ZM15.6624 15.1845C14.5784 15.1845 13.6852 14.1893 13.6852 12.9671C13.6852 11.7448 14.561 10.7496 15.6624 10.7496C16.7724 10.7496 17.6569 11.7536 17.6396 12.9671C17.6396 14.1893 16.7724 15.1845 15.6624 15.1845Z" fill="white"/></svg>