<svg width="30" height="32" viewBox="0 0 30 32" fill="none" xmlns="http://www.w3.org/2000/svg" class="z-[2]"><path d="M12.0451 0.663173L2.47855 6.19034C1.72506 6.62567 1.09974 7.25061 0.665328 8.0025C0.23018 8.75564 0.000794475 9.60917 0 10.4781V21.5324C0.00266761 22.3995 0.232913 23.2509 0.667835 24.0022C1.10216 24.7517 1.72625 25.3747 2.4779 25.809L12.0445 31.3359C12.7971 31.7707 13.6517 31.9998 14.5218 32C15.3919 31.9998 16.2466 31.7707 16.9993 31.3359L26.5658 25.809C27.3175 25.3747 27.9415 24.7517 28.3757 24.0022C28.811 23.2514 29.0418 22.4004 29.0453 21.5335V10.4792C29.0443 9.61027 28.8148 8.75678 28.3797 8.00361C27.9454 7.25169 27.3202 6.62673 26.5667 6.19145L17.0001 0.664285C16.2474 0.229534 15.3928 0.000381517 14.5226 0C13.6525 0.000311052 12.7978 0.229386 12.0451 0.664061V0.663173ZM14.5226 23.2054H4.22486C4.04472 23.2065 3.86758 23.1598 3.71156 23.0701C3.55512 22.9801 3.42552 22.8504 3.33612 22.694C3.24659 22.5376 3.20035 22.3603 3.20219 22.1802C3.20386 22.0002 3.25332 21.8239 3.3455 21.6691L8.48809 12.7465L13.6439 3.82368C13.7347 3.66972 13.8642 3.54196 14.0196 3.45298C14.1749 3.36434 14.3509 3.31769 14.5299 3.31763C14.7089 3.31769 14.8848 3.36434 15.0401 3.45298C15.1956 3.54196 15.3252 3.66972 15.416 3.82368L20.5718 12.7465L25.7144 21.6691C25.8065 21.8239 25.8559 22.0002 25.8576 22.1802C25.8594 22.3603 25.8133 22.5376 25.7237 22.694C25.6343 22.8504 25.5047 22.9801 25.3483 23.0701C25.1923 23.1598 25.015 23.2065 24.8349 23.2054H14.5226Z" fill="white"/></svg>